<svg width="88" height="36" viewBox="0 0 88 36" fill="none" xmlns="http://www.w3.org/2000/svg">
<g clip-path="url(#clip0_3_194)">
<path d="M42.6964 3.79663H45.613C48.3473 3.79663 50.2841 5.39247 50.2841 7.65137C50.2841 9.91026 48.3473 11.5173 45.613 11.5173H42.6964V3.79663ZM45.9776 9.5394C47.1624 9.5394 48.0055 8.75272 48.0055 7.65137C48.0055 6.55001 47.1624 5.77457 45.9776 5.77457H44.9066V9.5394H45.9776Z" fill="#323232"/>
<path d="M51.4006 3.79663H53.6109V11.5173H51.4006V3.79663Z" fill="#323232"/>
<path d="M58.6011 6.99964H62.2696V10.2812C61.4607 11.1466 60.2645 11.6523 59.034 11.6523C56.687 11.6523 54.716 9.82045 54.716 7.65146C54.716 5.48247 56.687 3.66187 59.034 3.66187C60.2645 3.66187 61.4607 4.16759 62.2696 5.0217L60.6404 6.42649C60.2531 5.932 59.6606 5.63981 59.034 5.63981C57.9289 5.63981 56.9946 6.56134 56.9946 7.65146C56.9946 8.74157 57.9289 9.67435 59.034 9.67435C59.4214 9.67435 59.7973 9.56197 60.1277 9.35968V8.60671H58.6011V6.99964Z" fill="#323232"/>
<path d="M63.5001 3.79663H65.7103V11.5173H63.5001V3.79663Z" fill="#323232"/>
<path d="M69.0029 5.74086H66.6901V3.79663H73.526V5.74086H71.2132V11.5173H69.0029V5.74086Z" fill="#323232"/>
<path d="M78.9491 10.4834H76.2261L75.8274 11.5173H73.3323L76.3401 3.79663H78.8351L81.8429 11.5173H79.3478L78.9491 10.4834ZM78.3225 8.87634L77.5933 6.99954L76.8527 8.87634H78.3225Z" fill="#323232"/>
<path d="M88.3939 9.57311V11.5173H82.5379V3.79663H84.7481V9.57311H88.3939Z" fill="#323232"/>
<path d="M42.1039 20.7197L43.3344 19.27C44.1319 19.8881 44.9977 20.214 45.9206 20.214C46.5244 20.214 46.8434 20.0117 46.8434 19.6746C46.8434 19.3037 46.57 19.2475 45.4876 19.0003C43.7901 18.6182 42.4799 18.1799 42.4799 16.5728C42.4799 14.9657 43.7103 14.033 45.5674 14.033C46.9232 14.033 47.9827 14.3926 48.8486 15.0781L47.7435 16.6178C47.0143 16.1008 46.2168 15.8423 45.5104 15.8423C44.975 15.8423 44.7129 16.0559 44.7129 16.348C44.7129 16.7414 44.9864 16.865 46.1029 17.101C47.9258 17.4831 49.0651 17.9664 49.0651 19.4386C49.0651 21.0681 47.8004 22.0234 45.8408 22.0234C44.4281 22.0234 43.0951 21.5851 42.1039 20.7197Z" fill="#323232"/>
<path d="M52.2665 16.1119V16.9773H55.9921V18.9215H52.2665V19.9442H56.3566V21.8884H50.0563V14.1677H56.3566V16.1119H52.2665Z" fill="#323232"/>
<path d="M59.6834 16.1119V16.9773H63.4089V18.9215H59.6834V19.9442H63.7735V21.8884H57.4732V14.1677H63.7735V16.1119H59.6834Z" fill="#323232"/>
<path d="M64.89 14.1677H67.8067C70.541 14.1677 72.4778 15.7636 72.4778 18.0225C72.4778 20.2814 70.541 21.8884 67.8067 21.8884H64.89V14.1677ZM68.1712 19.9105C69.3561 19.9105 70.1992 19.1238 70.1992 18.0225C70.1992 16.9211 69.3561 16.1457 68.1712 16.1457H67.1003V19.9105H68.1712Z" fill="#323232"/>
<path d="M42.1039 31.0347L43.3344 29.5849C44.1319 30.203 44.9977 30.529 45.9206 30.529C46.5244 30.529 46.8434 30.3267 46.8434 29.9895C46.8434 29.6187 46.57 29.5625 45.4876 29.3152C43.7901 28.9331 42.4799 28.4948 42.4799 26.8878C42.4799 25.2807 43.7103 24.3479 45.5674 24.3479C46.9232 24.3479 47.9827 24.7075 48.8486 25.3931L47.7435 26.9327C47.0143 26.4157 46.2168 26.1573 45.5104 26.1573C44.975 26.1573 44.7129 26.3708 44.7129 26.663C44.7129 27.0563 44.9864 27.1799 46.1029 27.416C47.9258 27.7981 49.0651 28.2813 49.0651 29.7535C49.0651 31.3831 47.8004 32.3383 45.8408 32.3383C44.4281 32.3383 43.0951 31.9 42.1039 31.0347Z" fill="#323232"/>
<path d="M51.9475 26.4269H49.6347V24.4827H56.4706V26.4269H54.1578V32.2034H51.9475V26.4269Z" fill="#323232"/>
<path d="M57.3364 28.7757V24.4827H59.5467V28.6633C59.5467 29.6523 60.1733 30.3603 61.062 30.3603C61.9506 30.3603 62.5772 29.6523 62.5772 28.6633V24.4827H64.7875V28.7757C64.7875 30.866 63.2494 32.3382 61.062 32.3382C58.8745 32.3382 57.3364 30.866 57.3364 28.7757Z" fill="#323232"/>
<path d="M66.0749 24.4827H68.9915C71.7259 24.4827 73.6627 26.0785 73.6627 28.3374C73.6627 30.5963 71.7259 32.2034 68.9915 32.2034H66.0749V24.4827ZM69.3561 30.2254C70.541 30.2254 71.3841 29.4388 71.3841 28.3374C71.3841 27.236 70.541 26.4606 69.3561 26.4606H68.2852V30.2254H69.3561Z" fill="#323232"/>
<path d="M74.7792 24.4827H76.9895V32.2034H74.7792V24.4827Z" fill="#323232"/>
<path d="M78.0946 28.3375C78.0946 26.1685 80.0428 24.3479 82.3556 24.3479C84.6684 24.3479 86.6166 26.1685 86.6166 28.3375C86.6166 30.5065 84.6684 32.3383 82.3556 32.3383C80.0428 32.3383 78.0946 30.5065 78.0946 28.3375ZM84.338 28.3375C84.338 27.2474 83.4265 26.3258 82.3556 26.3258C81.2847 26.3258 80.3732 27.2474 80.3732 28.3375C80.3732 29.4276 81.2847 30.3604 82.3556 30.3604C83.4265 30.3604 84.338 29.4388 84.338 28.3375Z" fill="#323232"/>
<path d="M27.3604 8.20015C25.8774 8.20015 24.4096 8.47548 23.0387 9.01867C21.6696 9.55998 20.424 10.3542 19.3758 11.3562L18.9884 11.7271L18.9011 11.2008C18.4435 8.46237 16.9795 5.96934 14.773 4.16747C12.5646 2.3656 9.75626 1.37476 6.85293 1.37476H0V6.21471C0 9.30524 1.28362 12.2722 3.56983 14.4617C5.85793 16.6513 8.96254 17.8819 12.2001 17.8819H16.0509V29.4124C14.8641 29.9668 14.0419 31.1581 14.0419 32.5385C14.0419 34.4509 15.6142 36.0018 17.5529 36.0018C19.4916 36.0018 21.0639 34.4509 21.0639 32.5385C21.0639 31.1562 20.2417 29.9668 19.053 29.4124V23.001H23.7944C26.7965 23.001 29.6732 21.8603 31.7942 19.8318C33.9133 17.8033 35.1039 15.0536 35.1039 12.1897V8.20202H27.3623L27.3604 8.20015ZM15.768 15.0255H12.202C9.76385 15.0255 7.42448 14.0984 5.70033 12.4482C3.97428 10.7962 3.00207 8.55415 3.00207 6.21471V4.22928H6.85293C9.29104 4.22928 11.6304 5.15644 13.3565 6.8066C15.0825 8.45863 16.0547 10.7007 16.0547 13.0401V15.0255H15.7718H15.768ZM32.1018 11.3338V12.1879C32.1018 14.3007 31.2246 16.3273 29.6656 17.8183C28.1067 19.3092 25.9952 20.1465 23.7944 20.1465H19.053V19.0133C19.053 16.9005 19.9303 14.8738 21.4892 13.3829C23.0482 11.8919 25.1597 11.0547 27.3604 11.0547H32.1018V11.3338Z" fill="#323232"/>
<path d="M16.1136 2.56608C16.2142 2.64849 16.3073 2.73465 16.406 2.81894C16.7839 2.78897 17.1655 2.77024 17.5529 2.77024C21.098 2.77024 24.3489 4.03642 26.8667 6.13236C27.0262 6.12674 27.1857 6.12112 27.3471 6.12112H30.8125C27.6434 2.38065 22.8792 0 17.551 0C15.9598 0 14.4217 0.217274 12.9596 0.612487C14.0875 1.12383 15.1509 1.77752 16.1136 2.5642V2.56608Z" fill="#323232"/>
<path d="M33.2601 21.3209C32.4322 22.1132 31.5132 22.7875 30.5296 23.3381C28.9536 26.483 26.2363 28.976 22.9152 30.289C23.2134 30.9802 23.3786 31.7406 23.3786 32.5386C23.3786 32.7259 23.3691 32.9113 23.3501 33.093C29.1795 31.0439 33.5659 25.9922 34.595 19.8262C34.1925 20.3544 33.7462 20.8563 33.2601 21.3209Z" fill="#323232"/>
<path d="M3.08562 17.039C3.08562 16.9622 3.08942 16.8873 3.09132 16.8105C2.75142 16.5389 2.42102 16.2542 2.10392 15.9508C1.52287 15.3945 0.99879 14.7895 0.529775 14.1489C0.366475 15.0892 0.277229 16.0538 0.277229 17.039C0.277229 24.4432 5.06611 30.7404 11.7519 33.0911C11.7349 32.9075 11.7235 32.724 11.7235 32.5366C11.7235 31.7387 11.8887 30.9783 12.1868 30.2871C6.85862 28.1799 3.08372 23.0384 3.08372 17.039H3.08562Z" fill="#323232"/>
</g>
<defs>
<clipPath id="clip0_3_194">
<rect width="88" height="36" fill="white"/>
</clipPath>
</defs>
</svg>
